name D:\school\WTK\thesis\model\3dpredictsim\Results\debug_batch\Pog_s1_tmt_aCst_d00_k2000_ig24_pas.mot
datacolumns 128
datarows 4
range 1.65939914 1.69258712
endheader
time	pelvis_tilt	pelvis_list	pelvis_rotation	pelvis_tx	pelvis_ty	pelvis_tz	hip_flexion_l	hip_adduction_l	hip_rotation_l	hip_flexion_r	hip_adduction_r	hip_rotation_r	knee_angle_l	knee_angle_r	ankle_angle_l	ankle_angle_r	subtalar_angle_l	subtalar_angle_r	tmt_angle_l	tmt_angle_r	mtp_angle_l	mtp_angle_r	lumbar_extension	lumbar_bending	lumbar_rotation	arm_flex_l	arm_add_l	arm_rot_l	arm_flex_r	arm_add_r	arm_rot_r	elbow_flex_l	elbow_flex_r	pro_sup_l	pro_sup_r	glut_med1_l/activation	glut_med2_l/activation	glut_med3_l/activation	glut_min1_l/activation	glut_min2_l/activation	glut_min3_l/activation	semimem_l/activation	semiten_l/activation	bifemlh_l/activation	bifemsh_l/activation	sar_l/activation	add_long_l/activation	add_brev_l/activation	add_mag1_l/activation	add_mag2_l/activation	add_mag3_l/activation	tfl_l/activation	pect_l/activation	grac_l/activation	glut_max1_l/activation	glut_max2_l/activation	glut_max3_l/activation	iliacus_l/activation	psoas_l/activation	quad_fem_l/activation	gem_l/activation	peri_l/activation	rect_fem_l/activation	vas_med_l/activation	vas_int_l/activation	vas_lat_l/activation	med_gas_l/activation	lat_gas_l/activation	soleus_l/activation	tib_post_l/activation	flex_dig_l/activation	flex_hal_l/activation	tib_ant_l/activation	per_brev_l/activation	per_long_l/activation	per_tert_l/activation	ext_dig_l/activation	ext_hal_l/activation	ercspn_l/activation	intobl_l/activation	extobl_l/activation	glut_med1_r/activation	glut_med2_r/activation	glut_med3_r/activation	glut_min1_r/activation	glut_min2_r/activation	glut_min3_r/activation	semimem_r/activation	semiten_r/activation	bifemlh_r/activation	bifemsh_r/activation	sar_r/activation	add_long_r/activation	add_brev_r/activation	add_mag1_r/activation	add_mag2_r/activation	add_mag3_r/activation	tfl_r/activation	pect_r/activation	grac_r/activation	glut_max1_r/activation	glut_max2_r/activation	glut_max3_r/activation	iliacus_r/activation	psoas_r/activation	quad_fem_r/activation	gem_r/activation	peri_r/activation	rect_fem_r/activation	vas_med_r/activation	vas_int_r/activation	vas_lat_r/activation	med_gas_r/activation	lat_gas_r/activation	soleus_r/activation	tib_post_r/activation	flex_dig_r/activation	flex_hal_r/activation	tib_ant_r/activation	per_brev_r/activation	per_long_r/activation	per_tert_r/activation	ext_dig_r/activation	ext_hal_r/activation	ercspn_r/activation	intobl_r/activation	extobl_r/activation	
          1.65939914	         -2.92890228	          2.53760983	         -5.95868478	          2.07424892	          0.85520309	          0.00356160	         31.82411659	          3.16393494	         -2.91967269	        -18.81367274	         -2.08491014	          7.27236438	        -13.51052681	         -5.78732512	          7.08409430	          1.54667372	         -4.22073243	          9.31783570	          0.01590130	          0.93574747	         -0.12748346	         21.73993747	         -2.21848537	         -0.85668157	          2.15136466	        -10.16876089	        -13.57612375	          5.91535292	          8.75339906	        -13.45230646	         17.10082017	         14.17004971	         38.75696890	         86.51662706	         86.51662706	          0.05000055	          0.05000010	          0.05018463	          0.05000008	          0.05000010	          0.05000047	          0.08568032	          0.05921913	          0.34114914	          0.05000031	          0.05000054	          0.10935575	          0.15737384	          0.19939298	          0.16609631	          0.13465850	          0.05921889	          0.05022906	          0.06827434	          0.06274430	          0.07013769	          0.11932389	          0.05000148	          0.05486505	          0.14673205	          0.05000043	          0.05000024	          0.05000018	          0.10250024	          0.10397213	          0.09075221	          0.05000015	          0.05000023	          0.05921882	          0.05000003	          0.05191204	          0.05921845	          0.51302624	          0.39101650	          0.23742893	          0.32449598	          0.55185549	          0.31401128	          0.07776137	          0.10567693	          0.10558656	          0.25774066	          0.09838688	          0.07389920	          0.31775490	          0.20556808	          0.10930565	          0.05000112	          0.05000013	          0.05000009	          0.08218283	          0.11652420	          0.05000037	          0.05000013	          0.05000015	          0.05000046	          0.05000042	          0.34239314	          0.05000071	          0.05000041	          0.05000887	          0.05000301	          0.05000119	          0.47411855	          0.71601810	          0.05000032	          0.05000099	          0.05000107	          0.28445703	          0.05910542	          0.05000288	          0.05000212	          0.34802908	          0.46741952	          0.32485206	          0.28933220	          0.29988490	          0.41982671	          0.05000001	          0.06383869	          0.16446423	          0.05000009	          0.05000002	          0.05000009	          0.05000000	          0.05000000	          0.05000001	
          1.67046180	         -2.92271792	          2.62966193	         -6.26120813	          2.09095444	          0.85408631	          0.00335847	         31.29076366	          3.53077284	         -2.73801481	        -18.70305442	         -2.40955796	          7.08519506	        -13.51981190	         -7.73827868	          6.53813237	          0.76433772	         -4.72054059	         10.33121477	          0.02133233	          0.81612184	         -0.10953985	         22.87325696	         -2.00730908	         -1.07813133	          2.24226989	        -11.33962342	        -13.56389101	          5.85383105	          8.64463813	        -13.45992065	         17.37979786	         14.05343443	         39.96934936	         86.51662706	         86.51662706	          0.07335022	          0.05921881	          0.05000008	          0.05921910	          0.05921890	          0.05000053	          0.07234210	          0.05000031	          0.29846519	          0.05000017	          0.05000051	          0.09233203	          0.13287481	          0.21721478	          0.19516764	          0.13758889	          0.05000015	          0.05000097	          0.05764590	          0.05921897	          0.05921913	          0.13855662	          0.05000018	          0.05000042	          0.50303774	          0.11969139	          0.08401481	          0.06986571	          0.16867809	          0.17669777	          0.15306204	          0.05000000	          0.05000000	          0.05000000	          0.05000004	          0.05921883	          0.05000077	          0.57413753	          0.33014524	          0.22020704	          0.49009232	          0.58702980	          0.27846669	          0.06565590	          0.08922570	          0.08914940	          0.21761702	          0.08307054	          0.06239499	          0.26828857	          0.17356636	          0.09228954	          0.05000160	          0.05000016	          0.05000018	          0.06938906	          0.09838445	          0.12712597	          0.06697156	          0.05004033	          0.05000197	          0.05000085	          0.28909134	          0.10042416	          0.05000119	          0.05000079	          0.05000053	          0.05000048	          0.40031033	          0.66251270	          0.05000016	          0.05000215	          0.05921889	          0.24017432	          0.05000172	          0.19359284	          0.17913003	          0.29384975	          0.39465413	          0.27428084	          0.26841627	          0.25320151	          0.35451069	          0.05000001	          0.05390074	          0.17058210	          0.05000006	          0.05000001	          0.05000007	          0.05000007	          0.06960553	          0.05000002	
          1.68152446	         -2.91235307	          2.71869147	         -6.53614253	          2.10796895	          0.85302739	          0.00315944	         30.65779009	          3.84092550	         -2.49153795	        -18.50368316	         -2.72375291	          6.88707938	        -14.12111022	         -9.83932590	          5.87259142	         -0.19791986	         -5.24341049	         11.30498690	         -0.01573085	          0.68375868	         -0.14866986	         23.86139747	         -1.77274742	         -1.30208269	          2.32153222	        -12.52595367	        -13.55203145	          5.83237850	          8.44200056	        -13.46535500	         17.58388294	         13.99604204	         41.13711204	         86.51662706	         86.51662706	          0.26288760	          0.05000004	          0.32545842	          0.05000023	          0.05000010	          0.23869502	          0.08316592	          0.05000021	          0.25200173	          0.05000008	          0.05000030	          0.07931082	          0.21088498	          0.18340070	          0.17225225	          0.16798209	          0.05000021	          0.05922011	          0.11233092	          0.05000008	          0.05000029	          0.16107538	          0.05414181	          0.05000033	          0.42472751	          0.10105853	          0.17456332	          0.05898940	          0.14241924	          0.14919048	          0.12923421	          0.06073562	          0.06416932	          0.06200763	          0.05921889	          0.05000010	          0.05000013	          0.48475883	          0.39775190	          0.22026302	          0.41379753	          0.57715010	          0.23511648	          0.05543506	          0.08818410	          0.07527110	          0.29864884	          0.07013857	          0.05268170	          0.22652293	          0.14654649	          0.07792241	          0.05000099	          0.05000024	          0.05000023	          0.05858696	          0.08306860	          0.15242708	          0.09641842	          0.05921913	          0.05921861	          0.05921795	          0.24408787	          0.09118862	          0.05004860	          0.05000865	          0.05000906	          0.05454517	          0.33799220	          0.62486030	          0.05921867	          0.05000098	          0.05000007	          0.20278526	          0.13556561	          0.16345551	          0.15124431	          0.24810477	          0.33321646	          0.23158224	          0.22663071	          0.21378457	          0.29932246	          0.05000000	          0.06363164	          0.19652019	          0.05000004	          0.05000001	          0.05000005	          0.05692325	          0.05876973	          0.05000005	
          1.69258712	         -2.89969869	          2.80507028	         -6.77792638	          2.12512311	          0.85202943	          0.00294149	         29.91514169	          4.11259695	         -2.22952523	        -18.20250773	         -3.02521267	          6.68284270	        -14.79822331	        -12.08917222	          5.43307304	         -1.34695744	         -5.75402088	         12.21720052	         -0.01087206	          0.55848040	         -0.17091506	         24.64375917	         -1.53170082	         -1.52658700	          2.39064970	        -13.68264539	        -13.54078271	          5.86850159	          8.17084377	        -13.47384993	         17.72745472	         13.96614106	         42.24859404	         86.51662706	         86.51662706	          0.31650859	          0.29898574	          0.40151262	          0.21015286	          0.22494014	          0.20153655	          0.07021914	          0.08894813	          0.21277144	          0.07986566	          0.05000314	          0.06696415	          0.17805553	          0.15484990	          0.14543705	          0.18070972	          0.05000018	          0.05000122	          0.09484396	          0.23228489	          0.18175944	          0.16879176	          0.05000003	          0.05000004	          0.35860822	          0.08532644	          0.14738836	          0.05000002	          0.12024821	          0.12596536	          0.10911576	          0.05128062	          0.05417979	          0.05235461	          0.05000001	          0.05921904	          0.05921887	          0.61488764	          0.44273530	          0.23082021	          0.66261924	          0.65024443	          0.34906587	          0.08196274	          0.08314852	          0.06355329	          0.25215707	          0.05921978	          0.05000001	          0.33056659	          0.12373294	          0.06579189	          0.05316620	          0.05000007	          0.05000006	          0.05000011	          0.07013722	          0.14447596	          0.08140859	          0.05000035	          0.05000027	          0.05000018	          0.28369854	          0.07699348	          0.05000017	          0.05000040	          0.05000023	          0.05000014	          0.28537540	          0.57827758	          0.05000002	          0.05000015	          0.05000010	          0.17121674	          0.11446173	          0.13800984	          0.13800913	          0.20948113	          0.28134308	          0.19553074	          0.19135007	          0.18050378	          0.25272557	          0.05000000	          0.11652291	          0.18229151	          0.05000009	          0.05000004	          0.05000007	          0.07292829	          0.05000000	          0.05000001	
